<svg width="231" height="230" viewBox="0 0 231 230" fill="none" xmlns="http://www.w3.org/2000/svg">
<path d="M193.996 136.228C171.714 137.446 191.252 126.173 173.33 123.751C165.66 122.716 149.385 124.855 142.027 127.3C141.738 127.396 140.27 134.847 140.122 135.487C139.42 138.499 133.893 155.781 133.139 158.854C142.822 162.216 150.467 162.009 160.675 161.193C161.333 161.142 161.402 162.113 160.824 162.293C153.626 164.51 145.498 163.966 138.229 162.293C131.699 160.786 129.877 159.269 128.914 159.315C128.09 159.353 120.607 162.317 118.882 162.317C107.784 162.308 102.604 155.829 101.34 155.835C101.187 155.835 90.3414 159.055 86.7258 159.694C79.7169 160.934 72.5914 161.387 65.4819 161.044C65.4084 161.044 65.3379 161.015 65.2859 160.963C65.234 160.911 65.2048 160.841 65.2048 160.767C65.2048 160.694 65.234 160.623 65.2859 160.571C65.3379 160.519 65.4084 160.49 65.4819 160.49C71.9706 160.445 78.4431 159.836 84.8261 158.668C85.9209 153.519 92.2263 128.138 93.1521 127.583C74.8464 131.877 82.9171 121.203 74.3346 121.423C51.7716 121.998 16.4022 134.171 7.5495 153.109C3.90055 160.91 8.1406 165.745 17.6143 169.094C25.1215 171.754 32.3343 172.348 38.2108 173.771C48.5217 176.265 43.3088 182.301 43.5652 188.973C44.0505 201.567 60.4047 200.868 67.2552 200.304C84.442 198.89 102.393 193.433 119.607 190.966C133.488 188.977 127.478 197.988 138.053 200.132C157.932 204.157 189.376 189.654 199.965 181.764C246.14 147.357 218.057 134.912 193.996 136.228ZM49.6269 148.74C47.8869 149.223 45.8158 148.491 44.2356 147.803C42.4756 147.09 40.8792 146.026 39.5437 144.676C36.257 147.589 31.2798 149.67 26.9132 149.214C26.8276 149.213 26.7454 149.18 26.6815 149.123C26.6175 149.067 26.576 148.989 26.5645 148.904C26.553 148.819 26.5722 148.733 26.6186 148.661C26.6651 148.589 26.7357 148.536 26.8178 148.512C29.9446 147.644 35.0529 147.168 39.0676 143.079C39.2087 142.94 39.3986 142.862 39.5966 142.862C39.7945 142.862 39.9845 142.94 40.1256 143.079C42.5774 145.997 46.1769 146.805 49.6234 147.887C49.7149 147.915 49.795 147.971 49.8522 148.048C49.9093 148.124 49.9403 148.217 49.9407 148.312C49.9411 148.408 49.9108 148.501 49.8543 148.578C49.7978 148.655 49.7181 148.712 49.6269 148.74ZM64.0444 138.528C62.1184 138.717 60.1947 138.148 58.6808 136.943C57.4788 137.893 56.0441 138.504 54.5259 138.712C54.0406 138.791 53.8175 138.07 54.3177 137.959C57.7068 137.208 58.2369 135.206 58.943 135.743C60.4834 136.777 62.2197 137.484 64.0444 137.82C64.3756 137.905 64.4159 138.469 64.0444 138.528ZM86.7937 189.013C84.9031 189.261 82.8285 188.034 81.3968 186.9C80.9678 186.602 80.5753 186.254 80.2272 185.865C79.2886 186.55 78.2477 187.084 77.1429 187.445C75.0161 188.325 72.786 188.932 70.5062 189.25C70.1613 189.306 70.0141 188.817 70.3614 188.722C72.8037 188.076 75.1609 187.142 77.3833 185.941C78.2101 185.481 79.0151 184.695 79.8742 184.331C80.6792 183.986 81.1012 184.695 81.659 185.195C83.269 186.643 85.2654 187.014 87.0318 188.129C87.1144 188.186 87.1774 188.266 87.2121 188.36C87.2467 188.454 87.2513 188.556 87.2251 188.653C87.1989 188.75 87.1433 188.836 87.066 188.899C86.9887 188.963 86.8935 189.001 86.7937 189.008V189.013ZM100.205 167.242C100.218 167.25 100.23 167.259 100.242 167.269L100.205 167.242ZM108.394 169.427C103.836 170.173 99.6243 166.739 99.7381 166.752C96 168.145 92.084 169.004 88.1059 169.304C87.6597 169.339 87.6712 168.655 88.1059 168.614C91.8056 168.32 95.4226 167.365 98.7847 165.794C99.8853 165.275 100.194 165.745 101.309 166.369C103.534 167.482 105.925 168.227 108.388 168.576C108.798 168.653 108.813 169.355 108.391 169.424L108.394 169.427ZM158.024 180.276C156.304 180.736 152.571 180.083 150.067 179.253C148.93 178.879 147.847 178.357 146.847 177.701C146.284 178.093 145.689 178.436 145.068 178.728C142.978 179.696 140.416 180.881 138.061 180.73C137.962 180.728 137.866 180.691 137.792 180.626C137.718 180.56 137.67 180.47 137.656 180.372C137.642 180.274 137.663 180.174 137.717 180.09C137.77 180.007 137.851 179.945 137.946 179.916C139.173 179.422 140.463 179.111 141.691 178.608C146.781 176.538 146.406 175.466 147.912 176.509C151.779 179.179 154.511 178.234 158.018 179.328C158.118 179.36 158.205 179.423 158.267 179.508C158.329 179.593 158.363 179.695 158.363 179.8C158.363 179.905 158.33 180.007 158.268 180.092C158.207 180.177 158.12 180.241 158.02 180.273L158.024 180.276ZM173.434 146.926C170.409 147.846 166.631 146.158 164.042 144.544C163.207 145.262 162.314 145.909 161.372 146.48C162.012 146.669 162.655 146.862 163.289 147.08C163.397 147.113 163.49 147.184 163.551 147.279C163.611 147.375 163.637 147.488 163.622 147.6C163.607 147.712 163.552 147.815 163.469 147.891C163.385 147.967 163.277 148.011 163.164 148.015C161.589 148.104 160.013 147.846 158.548 147.261C157.082 146.675 155.763 145.776 154.683 144.626C152.423 146.873 149.431 148.234 146.252 148.461C145.953 148.478 145.923 148.045 146.185 147.961C149.239 147.117 152.019 145.487 154.248 143.235C154.371 143.115 154.536 143.047 154.708 143.047C154.88 143.047 155.045 143.115 155.168 143.235C156.578 144.664 158.356 145.674 160.305 146.154C163.531 144.17 163.55 143.074 164.252 143.462C167.043 145.029 170.145 145.966 173.337 146.206C173.422 146.211 173.503 146.246 173.565 146.304C173.628 146.363 173.668 146.441 173.679 146.526C173.69 146.61 173.671 146.696 173.626 146.769C173.58 146.841 173.511 146.895 173.43 146.922L173.434 146.926ZM206.874 156.797C203.575 157.338 200.126 155.697 197.551 153.698C194.34 155.801 190.67 157.1 186.851 157.485C186.506 157.524 186.438 156.948 186.769 156.894C191.893 156.054 193.669 154.996 197.234 152.254C197.366 152.179 197.519 152.149 197.67 152.169C197.821 152.188 197.961 152.256 198.07 152.362C201.764 155.368 204.576 155.237 206.874 155.884C207.292 155.999 207.353 156.719 206.871 156.794L206.874 156.797Z" fill="#2F3941"/>
<path d="M146.993 102.947C145.171 95.7323 138.618 93.1804 139.66 82.2727C139.986 78.8595 145.022 59.1577 147.226 52.8212C147.307 52.5912 146.779 50.397 142.031 48.5995C139.772 47.7462 135.979 46.8423 133.765 48.166C133.711 48.1993 128.294 63.2712 125.749 70.5105C124.64 74.0798 123.216 77.5435 121.494 80.8605C120.417 82.7568 119.424 85.3984 111.121 87.9042C103.335 90.2502 101.438 97.9564 99.0458 105.533C93.3947 123.44 86.7948 144.673 84.5845 158.439C84.5305 158.784 85.025 158.94 85.1216 158.587C89.6388 141.94 101.964 101.282 103.558 97.6367C104.363 95.7886 106.834 90.9517 112.279 89.3233C116.015 88.2078 119.286 86.9003 121.716 83.6676C123.939 80.7098 131.777 57.2245 134.907 49.2021C140.508 48.9399 142.346 50.8409 145.665 52.9224C143.651 58.4102 142.372 64.2016 140.895 69.8458C139.198 76.3283 136.559 83.1858 138.272 89.9455C140.102 97.156 146.675 99.3191 145.402 110.81C144.619 117.901 133.207 155.444 132.691 159.953C132.695 160.123 132.754 160.288 132.859 160.422C132.964 160.557 133.11 160.653 133.275 160.698C133.439 160.743 133.614 160.733 133.773 160.671C133.931 160.608 134.066 160.496 134.155 160.351C135.65 156.965 136.34 153.106 137.325 149.541C145.524 119.986 149.066 111.156 146.993 102.947Z" fill="#2F3941"/>
<path d="M140.173 32.3513C140.724 31.8913 144.301 31.6877 147.452 32.5445C150.37 33.338 152.893 35.1469 153.003 35.8346C153.226 37.2664 148.694 49.4955 148.254 49.4955C147.815 49.4955 145.353 46.9965 140.632 45.8258C137.677 45.0933 135.336 45.5395 135.219 45.2623C134.948 44.6264 139.111 33.246 140.173 32.3513Z" fill="#2F3941"/>
<path d="M96.8159 135.314C103.716 132.983 109.793 126.857 113.559 120.797C117.849 113.89 119.737 104.563 119.145 99.0008C120.551 99.7204 122.005 100.341 123.497 100.858C135.237 105.75 136.24 109.475 139.16 112.228C139.246 112.309 139.356 112.36 139.473 112.373C139.59 112.387 139.708 112.362 139.81 112.302C139.912 112.243 139.992 112.152 140.038 112.044C140.084 111.935 140.093 111.815 140.065 111.7C138.455 106.444 130.56 102.236 125.427 100.101C123.22 99.0549 120.877 98.3232 118.467 97.9279C117.924 97.8761 117.861 98.3315 117.837 98.5845C117.11 105.924 117.155 117.683 105.37 128.352C102.592 130.668 99.6235 132.746 96.4962 134.562C96.1167 134.799 96.3513 135.47 96.8159 135.314Z" fill="#2F3941"/>
<path d="M140.212 114.392C140.207 114.234 140.145 114.082 140.039 113.964C139.932 113.847 139.787 113.77 139.63 113.749C139.472 113.728 139.313 113.763 139.179 113.848C139.045 113.934 138.945 114.064 138.898 114.215C138.143 116.274 138.08 121.17 136.598 126.613C133.922 136.426 125.388 148.448 112.619 155.823C108.864 153.914 105.513 151.298 102.75 148.118C99.9019 144.929 97.4584 141.401 95.475 137.613C101.714 138.247 108 137.006 113.53 134.048C113.12 135.855 112.918 137.703 112.927 139.557C112.73 141.999 112.992 144.457 113.703 146.802C113.739 146.899 113.807 146.981 113.896 147.035C113.985 147.089 114.09 147.111 114.193 147.098C114.296 147.084 114.391 147.036 114.464 146.962C114.536 146.887 114.581 146.79 114.591 146.687C114.658 144.402 114.341 142.134 114.347 139.843C114.353 137.714 114.841 135.507 114.776 133.39C117.059 132.117 119.238 130.667 121.294 129.051C122.197 126.635 122.867 124.138 123.296 121.595C123.435 120.579 123.526 119.56 123.589 118.538C126.413 117.094 129.399 115.997 132.214 114.554C132.559 114.377 132.292 113.915 131.958 113.963C128.977 114.509 126.141 115.664 123.627 117.356C123.809 111.4 122.476 105.496 119.753 100.197C119.73 100.16 119.695 100.132 119.654 100.119C119.613 100.106 119.568 100.108 119.528 100.125C119.488 100.141 119.456 100.172 119.437 100.211C119.418 100.25 119.413 100.294 119.424 100.336C121.854 107.163 122.571 114.481 121.513 121.65C121.186 123.745 120.186 127.954 120.186 127.954C113.133 133.846 104.219 137.047 95.0288 136.988C94.6919 136.988 94.7218 137.418 94.7632 137.527C96.3291 141.714 98.649 145.579 101.608 148.93C103.979 151.617 108.879 155.975 112.383 156.761C114.234 157.176 132.413 145.642 137.943 127.436C138.548 125.458 140.469 116.56 140.212 114.392Z" fill="#2F3941"/>
<path d="M120.186 89.7051C116.665 92.1891 113.865 95.5619 112.072 99.4801C111.228 101.332 110.558 103.373 109.009 104.691C107.208 106.223 105.569 105.016 106.057 102.48C106.794 99.277 108.624 96.4305 111.232 94.4304C113.829 92.4555 116.715 90.8941 119.788 89.8017L120.186 89.7051Z" fill="#2F3941"/>
<path d="M101.722 119.838C101.766 121.512 104.767 122.074 104.966 118.895C105.083 116.917 101.562 113.766 101.722 119.838Z" fill="#2F3941"/>
<path d="M219.575 69.6679C222.328 68.4892 221.725 66.3019 220.603 65.4612C215.773 61.8342 206.762 63.2762 200.927 64.8667C201.376 62.0388 196.92 58.6947 192.484 58.674C188.049 58.6533 182.64 61.2281 179.144 64.7689C176.299 63.5966 173.201 63.1688 170.144 63.5259C167.087 63.8831 164.171 65.0134 161.672 66.8102C160.442 67.6796 159.275 68.6362 158.181 69.6725L219.575 69.6679Z" fill="#2F3941"/>
<path d="M94.2894 78.682C98.9043 76.7109 93.8294 70.7205 78.9944 74.7478C79.3624 72.4294 75.7077 69.6878 72.0714 69.6671C68.4351 69.6464 63.9972 71.7601 61.1291 74.6604C58.7953 73.6982 56.2546 73.3469 53.7472 73.6397C51.2398 73.9324 48.8484 74.8597 46.799 76.3337C45.7895 77.0473 44.8322 77.8321 43.9343 78.682H94.2894Z" fill="#2F3941"/>
<path d="M83.3656 42.7382C86.7638 41.2858 86.0186 38.5844 84.6306 37.5471C78.6667 33.0725 67.5531 34.8573 60.3587 36.8146C60.913 33.3255 55.4137 29.2004 49.9443 29.174C44.4749 29.1475 37.8037 32.3215 33.4901 36.6846C26.5372 33.567 18.0801 34.8642 11.9345 39.2031C10.4176 40.2779 8.97918 41.4593 7.63 42.7382H83.3656Z" fill="#2F3941"/>
</svg>
